<?xml version="1.0" encoding="UTF-8"?> <svg xmlns="http://www.w3.org/2000/svg" width="1002" height="651" viewBox="0 0 1002 651" fill="none"><g clip-path="url(#clip0_4119_2582)"><rect width="1001" height="651" transform="translate(0.875)" fill="url(#paint0_linear_4119_2582)"></rect><path fill-rule="evenodd" clip-rule="evenodd" d="M548.295 345.383C533.314 345.383 521.17 357.527 521.17 372.508C521.17 387.488 533.314 399.632 548.295 399.632H560.404C575.271 399.764 587.283 411.857 587.283 426.756C587.283 439.914 577.915 450.884 565.484 453.358H484.067C469.144 453.358 457.047 465.456 457.047 480.378C457.047 495.301 469.144 507.398 484.067 507.398H887.641C902.564 507.398 914.661 495.301 914.661 480.378C914.661 465.456 902.564 453.358 887.641 453.358H737.918C725.487 450.884 716.119 439.914 716.119 426.756C716.119 411.857 728.131 399.764 742.998 399.632H750.036C765.016 399.632 777.161 387.488 777.161 372.508C777.161 357.527 765.016 345.383 750.036 345.383H548.295ZM824.631 345.383C809.651 345.383 797.507 357.527 797.507 372.508C797.507 387.488 809.651 399.632 824.631 399.632H893.291C908.272 399.632 920.416 387.488 920.416 372.508C920.416 357.527 908.272 345.383 893.291 345.383H824.631Z" fill="#D6E9FB"></path><rect x="590.82" y="632.074" width="152.207" height="50.7852" rx="25.3926" transform="rotate(180 590.82 632.074)" fill="#7EB3E7"></rect><rect x="1039.61" y="138.5" width="271.402" height="50.7852" rx="25.3926" transform="rotate(180 1039.61 138.5)" fill="#308BE3"></rect><rect x="216.203" y="581.289" width="152.207" height="50.7852" rx="25.3926" transform="rotate(180 216.203 581.289)" fill="#308BE3"></rect><path fill-rule="evenodd" clip-rule="evenodd" d="M208.482 84.2443C193.502 84.2443 181.358 96.3885 181.358 111.369C181.358 126.35 193.502 138.494 208.482 138.494H410.223C425.204 138.494 437.348 126.35 437.348 111.369C437.348 96.3885 425.204 84.2443 410.223 84.2443H208.482ZM484.819 84.2443C469.838 84.2443 457.694 96.3885 457.694 111.369C457.694 126.35 469.838 138.494 484.819 138.494H553.479C568.459 138.494 580.603 126.35 580.603 111.369C580.603 96.3885 568.459 84.2443 553.479 84.2443H484.819ZM117.234 219.24C117.234 204.317 129.332 192.22 144.254 192.22H225.688C238.115 189.742 247.48 178.774 247.48 165.619C247.48 150.638 235.336 138.494 220.356 138.494H403.44C388.46 138.494 376.316 150.638 376.316 165.619C376.316 178.774 385.681 189.742 398.108 192.22H547.829C562.751 192.22 574.848 204.317 574.848 219.24C574.848 234.163 562.751 246.26 547.829 246.26H144.254C129.332 246.26 117.234 234.163 117.234 219.24Z" fill="#308BE3"></path><rect x="111.727" y="563.844" width="74.8633" height="71" rx="35.5" transform="rotate(180 111.727 563.844)" fill="white"></rect><rect x="873.102" y="179.881" width="64.9805" height="61.6272" rx="30.8136" transform="rotate(180 873.102 179.881)" fill="white"></rect><rect x="920.414" y="555.896" width="74.8633" height="71" rx="35.5" transform="rotate(180 920.414 555.896)" fill="#308BE3"></rect><path d="M-25.0186 332.935C-25.0186 318.863 -13.61 307.454 0.46225 307.454H141.457C155.529 307.454 166.938 318.863 166.938 332.935C166.938 347.007 155.529 358.416 141.457 358.416H0.46225C-13.61 358.416 -25.0186 347.007 -25.0186 332.935Z" fill="#7EB3E7"></path><path d="M183.925 332.935C183.925 318.863 195.334 307.454 209.406 307.454H222.996C237.068 307.454 248.477 318.863 248.477 332.935C248.477 347.007 237.068 358.416 222.996 358.416H209.406C195.334 358.416 183.925 347.007 183.925 332.935Z" fill="#7EB3E7"></path><g filter="url(#filter0_dddd_4119_2582)"><ellipse cx="501.328" cy="324.25" rx="168.594" ry="168.594" fill="white"></ellipse></g><path d="M476.361 305.072C476.904 304.8 477.504 304.658 478.112 304.658H517.826C519.308 304.658 520.664 305.496 521.327 306.822L521.788 307.746C522.061 308.29 522.202 308.889 522.202 309.497V325.725C522.202 327.207 521.364 328.563 520.038 329.226L519.114 329.688C518.57 329.96 517.971 330.101 517.363 330.101H496.759H478.809C477.771 330.101 476.775 329.689 476.041 328.955L474.42 327.334C473.686 326.599 473.273 325.604 473.273 324.566V309.034C473.273 307.552 474.111 306.197 475.437 305.533L476.361 305.072Z" fill="#BAD9F6"></path><path d="M507.776 304.658H517.519C520.431 304.658 522.792 307.019 522.792 309.931V324.913C522.792 327.825 520.431 330.186 517.519 330.186H507.776H498.033H488.289H478.546C475.634 330.186 473.273 327.825 473.273 324.913V309.931C473.273 307.018 475.634 304.658 478.546 304.658H488.289" stroke="#073C8C" stroke-width="2.63712" stroke-miterlimit="10" stroke-linecap="round" stroke-linejoin="round"></path><path d="M486.312 317.42H509.297" stroke="#073C8C" stroke-width="2.63712" stroke-miterlimit="10" stroke-linecap="round" stroke-linejoin="round"></path><path d="M503.783 352.044C504.326 351.772 504.926 351.631 505.533 351.631H545.248C546.73 351.631 548.085 352.468 548.749 353.795L549.21 354.719C549.482 355.262 549.624 355.861 549.624 356.469V372.698C549.624 374.18 548.786 375.535 547.46 376.199L546.536 376.66C545.992 376.932 545.393 377.074 544.785 377.074H524.181H506.231C505.193 377.074 504.197 376.661 503.463 375.927L501.841 374.306C501.108 373.572 500.695 372.576 500.695 371.538V356.007C500.695 354.525 501.533 353.169 502.859 352.506L503.783 352.044Z" fill="white"></path><path d="M535.197 351.631H544.941C547.853 351.631 550.214 353.991 550.214 356.903V371.886C550.214 374.798 547.853 377.159 544.941 377.159H535.197H525.454H515.711H505.968C503.056 377.159 500.695 374.798 500.695 371.886V356.903C500.695 353.991 503.056 351.631 505.968 351.631H515.711" stroke="#073C8C" stroke-width="2.63712" stroke-miterlimit="10" stroke-linecap="round" stroke-linejoin="round"></path><path d="M513.703 364.395H536.687" stroke="#073C8C" stroke-width="2.63712" stroke-miterlimit="10" stroke-linecap="round" stroke-linejoin="round"></path><path d="M490.129 294.956H451.155C448.243 294.956 445.883 292.595 445.883 289.683V274.7C445.883 271.788 448.244 269.428 451.155 269.428H490.129C493.041 269.428 495.401 271.789 495.401 274.7V289.683C495.402 292.595 493.041 294.956 490.129 294.956Z" fill="#308BE3" stroke="#073C8C" stroke-width="2.63712" stroke-miterlimit="10" stroke-linecap="round" stroke-linejoin="round"></path><path d="M458.922 282.191H481.906" stroke="#073C8C" stroke-width="2.63712" stroke-miterlimit="10" stroke-linecap="round" stroke-linejoin="round"></path><path d="M457.047 294.951V313.832C457.047 315.374 458.297 316.624 459.839 316.624H469.732" stroke="#073C8C" stroke-width="2.63712" stroke-miterlimit="10" stroke-linecap="round" stroke-linejoin="round"></path><path d="M465.023 321.327L469.725 316.625L465.023 311.924" stroke="#073C8C" stroke-width="2.63712" stroke-miterlimit="10" stroke-linecap="round" stroke-linejoin="round"></path><path d="M524.18 316.398H535.529C537.071 316.398 538.321 317.649 538.321 319.19V339.884" stroke="#073C8C" stroke-width="2.63712" stroke-miterlimit="10" stroke-linecap="round" stroke-linejoin="round"></path><path d="M543.059 335.969L538.358 340.67L533.656 335.969" stroke="#073C8C" stroke-width="2.63712" stroke-miterlimit="10" stroke-linecap="round" stroke-linejoin="round"></path><path d="M553.52 367.285C561.087 367.285 567.22 361.151 567.22 353.585C567.22 346.019 561.087 339.885 553.52 339.885C545.954 339.885 539.82 346.019 539.82 353.585C539.82 361.151 545.954 367.285 553.52 367.285Z" fill="#308BE3"></path><path d="M554.138 361.645C553.762 361.645 553.452 361.536 553.206 361.317C552.961 361.082 552.838 360.793 552.838 360.448V347.865L553.157 348.288L550.876 349.814C550.68 349.97 550.443 350.049 550.165 350.049C549.838 350.049 549.544 349.931 549.282 349.697C549.037 349.446 548.914 349.157 548.914 348.828C548.914 348.421 549.127 348.085 549.552 347.819L553.28 345.448C553.427 345.354 553.582 345.291 553.746 345.26C553.925 345.229 554.089 345.213 554.236 345.213C554.612 345.213 554.915 345.33 555.144 345.565C555.373 345.784 555.487 346.066 555.487 346.41V360.448C555.487 360.793 555.356 361.082 555.094 361.317C554.849 361.536 554.531 361.645 554.138 361.645Z" fill="white"></path><path d="M540.392 226.342C528.296 221.573 515.118 218.953 501.328 218.953C467.378 218.953 437.136 234.832 417.625 259.569M565.468 240.414C591.227 259.862 607.875 290.737 607.875 325.5C607.875 378.554 569.098 422.551 518.341 430.696M486.579 431.034C434.715 423.853 394.781 379.34 394.781 325.5C394.781 305.887 400.08 287.513 409.325 271.729" stroke="#7EB3E7" stroke-width="4" stroke-linecap="round"></path><path d="M615.712 260.928C593.164 221.073 550.388 194.172 501.328 194.172C428.798 194.172 370 252.969 370 325.5C370 351.744 377.698 376.189 390.959 396.702M409.316 419.206C415.071 424.858 421.345 429.984 428.06 434.506C448.989 448.601 474.198 456.828 501.328 456.828C573.859 456.828 632.656 398.031 632.656 325.5C632.656 317.69 631.975 310.04 630.667 302.605" stroke="#D6E9FB" stroke-width="4" stroke-linecap="round"></path><circle cx="489.395" cy="219.732" r="4.64453" fill="white"></circle><circle cx="489.395" cy="219.732" r="6.64453" stroke="#7EB3E7" stroke-width="4" stroke-linecap="round"></circle><circle cx="602.23" cy="290.307" r="4.64453" fill="white"></circle><circle cx="602.23" cy="290.307" r="6.64453" stroke="#7EB3E7" stroke-width="4" stroke-linecap="round"></circle><circle cx="398.426" cy="351.631" r="4.64453" fill="white"></circle><circle cx="398.426" cy="351.631" r="6.64453" stroke="#7EB3E7" stroke-width="4" stroke-linecap="round"></circle><circle cx="580.605" cy="431.035" r="4.64453" fill="white"></circle><circle cx="580.605" cy="431.035" r="6.64453" stroke="#D6E9FB" stroke-width="4" stroke-linecap="round"></circle><circle cx="412.832" cy="229.021" r="4.64453" fill="white"></circle><circle cx="412.832" cy="229.021" r="6.64453" stroke="#D6E9FB" stroke-width="4" stroke-linecap="round"></circle></g><defs><filter id="filter0_dddd_4119_2582" x="288.902" y="148.099" width="424.852" height="498.913" filterUnits="userSpaceOnUse" color-interpolation-filters="sRGB"><feFlood flood-opacity="0" result="BackgroundImageFix"></feFlood><feColorMatrix in="SourceAlpha" type="matrix" values="0 0 0 0 0 0 0 0 0 0 0 0 0 0 0 0 0 0 127 0" result="hardAlpha"></feColorMatrix><feOffset dy="7.55729"></feOffset><feGaussianBlur stdDeviation="7.55729"></feGaussianBlur><feColorMatrix type="matrix" values="0 0 0 0 0.490196 0 0 0 0 0.701961 0 0 0 0 0.905882 0 0 0 0.05 0"></feColorMatrix><feBlend mode="normal" in2="BackgroundImageFix" result="effect1_dropShadow_4119_2582"></feBlend><feColorMatrix in="SourceAlpha" type="matrix" values="0 0 0 0 0 0 0 0 0 0 0 0 0 0 0 0 0 0 127 0" result="hardAlpha"></feColorMatrix><feOffset dy="27.2062"></feOffset><feGaussianBlur stdDeviation="13.6031"></feGaussianBlur><feColorMatrix type="matrix" values="0 0 0 0 0.490196 0 0 0 0 0.701961 0 0 0 0 0.905882 0 0 0 0.04 0"></feColorMatrix><feBlend mode="normal" in2="effect1_dropShadow_4119_2582" result="effect2_dropShadow_4119_2582"></feBlend><feColorMatrix in="SourceAlpha" type="matrix" values="0 0 0 0 0 0 0 0 0 0 0 0 0 0 0 0 0 0 127 0" result="hardAlpha"></feColorMatrix><feOffset dy="61.9697"></feOffset><feGaussianBlur stdDeviation="18.8932"></feGaussianBlur><feColorMatrix type="matrix" values="0 0 0 0 0.490196 0 0 0 0 0.701961 0 0 0 0 0.905882 0 0 0 0.02 0"></feColorMatrix><feBlend mode="normal" in2="effect2_dropShadow_4119_2582" result="effect3_dropShadow_4119_2582"></feBlend><feColorMatrix in="SourceAlpha" type="matrix" values="0 0 0 0 0 0 0 0 0 0 0 0 0 0 0 0 0 0 127 0" result="hardAlpha"></feColorMatrix><feOffset dy="110.336"></feOffset><feGaussianBlur stdDeviation="21.9161"></feGaussianBlur><feColorMatrix type="matrix" values="0 0 0 0 0.490196 0 0 0 0 0.701961 0 0 0 0 0.905882 0 0 0 0.01 0"></feColorMatrix><feBlend mode="normal" in2="effect3_dropShadow_4119_2582" result="effect4_dropShadow_4119_2582"></feBlend><feBlend mode="normal" in="SourceGraphic" in2="effect4_dropShadow_4119_2582" result="shape"></feBlend></filter><linearGradient id="paint0_linear_4119_2582" x1="500.5" y1="-30.9785" x2="500.5" y2="765.228" gradientUnits="userSpaceOnUse"><stop stop-color="#D6E9FB"></stop><stop offset="1" stop-color="white"></stop></linearGradient><clipPath id="clip0_4119_2582"><rect width="1001" height="651" fill="white" transform="translate(0.875)"></rect></clipPath></defs></svg> 